<?xml version="1.0" encoding="UTF-8" standalone="no"?>
<svg
   xmlns:dc="http://purl.org/dc/elements/1.1/"
   xmlns:cc="http://creativecommons.org/ns#"
   xmlns:rdf="http://www.w3.org/1999/02/22-rdf-syntax-ns#"
   xmlns:svg="http://www.w3.org/2000/svg"
   xmlns="http://www.w3.org/2000/svg"
   viewBox="0 0 3024.3733 3024.3733"
   height="3024.3733"
   width="3024.3733"
   xml:space="preserve"
   id="svg2"
   version="1.1"><metadata
     id="metadata8"><rdf:RDF><cc:Work
         rdf:about=""><dc:format>image/svg+xml</dc:format><dc:type
           rdf:resource="http://purl.org/dc/dcmitype/StillImage" /></cc:Work></rdf:RDF></metadata><defs
     id="defs6" /><g
     transform="matrix(1.3333333,0,0,-1.3333333,0,3024.3733)"
     id="g10"><g
       transform="scale(0.1)"
       id="g12"><g
         transform="scale(1.39141)"
         id="g14"><path
           id="path16"
           style="fill:none;fill-opacity:1;fill-rule:evenodd;stroke:none"
           d="M 2.03537,2.01291 H 16300 V 16300 H 2.03537 V 2.01291" /></g><g
         transform="scale(1.39141)"
         id="g18"><path
           id="path20"
           style="fill:none;stroke:#ffffff;stroke-width:4.07427979;stroke-linecap:butt;stroke-linejoin:miter;stroke-miterlimit:22.92560005;stroke-dasharray:none;stroke-opacity:1"
           d="M 2.03537,2.01291 H 16300 V 16300 H 2.03537 Z" /></g><path
         id="path22"
         style="fill:none;stroke:yellow;stroke-width:226.77200317;stroke-linecap:round;stroke-linejoin:round;stroke-miterlimit:22.92560005;stroke-dasharray:none;stroke-opacity:1"
         d="m 11253.5,14437.8 c -771.4,0 -1396.87,-625.4 -1396.87,-1396.9 0,-771.5 625.47,-1396.9 1396.87,-1396.9 771.5,0 1396.9,625.4 1396.9,1396.9 0,771.5 -625.4,1396.9 -1396.9,1396.9 z" /><path
         id="path24"
         style="fill:none;stroke:yellow;stroke-width:226.77200317;stroke-linecap:round;stroke-linejoin:round;stroke-miterlimit:22.92560005;stroke-dasharray:none;stroke-opacity:1"
         d="m 13897.4,8746.7 v 761 c 0,1268.5 -1249.3,1707 -1707,1707 h -45.8 c -263.8,-149.4 -566.2,-234.7 -891.1,-234.7 -324.8,0 -627.2,85.3 -891,234.7 h -45.8 c -457.7,0 -1706.99,-438.5 -1706.99,-1707 v -761" /><path
         id="path26"
         style="fill:none;stroke:yellow;stroke-width:226.77200317;stroke-linecap:round;stroke-linejoin:round;stroke-miterlimit:22.92560005;stroke-dasharray:none;stroke-opacity:1"
         d="m 9617.43,9440.5 -0.12,-941.2 c 965.59,-339.2 2307.29,-339.1 3272.49,0 l -0.1,941.2" /><g
         transform="scale(1.23074)"
         id="g28"><path
           id="path30"
           style="fill:none;stroke:yellow;stroke-width:184.25700378;stroke-linecap:round;stroke-linejoin:round;stroke-miterlimit:22.92560005;stroke-dasharray:none;stroke-opacity:1"
           d="M 15180.6,8730.87 C 15804,10162.7 14720,11269.1 13313.5,10938.7 l 145.6,-492.7 -771.4,113.8 -771.4,113.7 585.6,514.8 585.6,514.9 130.9,-443 c 1884.4,465.2 3081.6,-1113.2 1962.2,-2529.33 z" /></g><g
         transform="scale(1.19425)"
         id="g32"><path
           id="path34"
           style="fill:none;stroke:yellow;stroke-width:189.88699341;stroke-linecap:round;stroke-linejoin:round;stroke-miterlimit:22.92560005;stroke-dasharray:none;stroke-opacity:1"
           d="m 13002.7,14571.2 c -956.6,1294.2 -2502.7,896.8 -2932.5,-528.7 l 514.8,-123.9 -499.1,-629.9 -498.95,-629.8 -157.75,787.9 -157.76,787.9 462.8,-111.4 c 555.86,1921.6 2581.46,2176.7 3268.46,447.9 z" /></g><g
         transform="scale(1.12389)"
         id="g36"><path
           id="path38"
           style="fill:none;stroke:yellow;stroke-width:201.7749939;stroke-linecap:round;stroke-linejoin:round;stroke-miterlimit:22.92560005;stroke-dasharray:none;stroke-opacity:1"
           d="M 7284.17,16013.7 C 5584.94,15821 5129.22,14187.1 6212.73,13034.2 l 387.49,407.8 314.49,-793.8 314.49,-793.8 -808.88,273.4 -808.88,273.5 348.39,366.7 c -1473.01,1532.4 -631.56,3532 1324.34,3245.7 z" /></g><path
         id="path40"
         style="fill:none;stroke:yellow;stroke-width:226.77200317;stroke-linecap:round;stroke-linejoin:round;stroke-miterlimit:22.92560005;stroke-dasharray:none;stroke-opacity:1"
         d="M 3999.52,11937.3 C 3232.28,10175.1 4566.45,8813.4 6297.49,9220.1 l -179.23,606.4 949.37,-140 949.37,-140 -720.7,-633.6 -720.71,-633.7 -161.13,545.2 C 4095.2,8251.8 2621.79,10194.5 3999.52,11937.3 Z" /><path
         id="path42"
         style="fill:none;stroke:yellow;stroke-width:226.77200317;stroke-linecap:round;stroke-linejoin:round;stroke-miterlimit:22.92560005;stroke-dasharray:none;stroke-opacity:1"
         d="m 7154.35,5281.1 c 1142.51,-1545.6 2988.85,-1071 3502.15,631.5 l -614.7,148 595.9,752.1 595.9,752.2 188.4,-940.9 188.4,-941 -552.7,133 C 10393.9,3521.2 7974.83,3216.5 7154.35,5281.1 Z" /><g
         transform="scale(1.08222)"
         id="g44"><path
           id="path46"
           style="fill:none;stroke:yellow;stroke-width:209.54299927;stroke-linecap:round;stroke-linejoin:round;stroke-miterlimit:22.92560005;stroke-dasharray:none;stroke-opacity:1"
           d="m 13394.9,4329.16 c 1764.7,200.23 2238,1897.02 1112.7,3094.28 l -402.4,-423.48 -326.6,824.32 -326.6,824.42 840,-283.96 840,-284.04 -361.7,-380.79 C 16300,6108.55 15426.1,4031.9 13394.9,4329.16 Z" /></g></g></g></svg>