<?xml version="1.0" encoding="UTF-8" standalone="no"?>
<svg
   xmlns:dc="http://purl.org/dc/elements/1.1/"
   xmlns:cc="http://creativecommons.org/ns#"
   xmlns:rdf="http://www.w3.org/1999/02/22-rdf-syntax-ns#"
   xmlns:svg="http://www.w3.org/2000/svg"
   xmlns="http://www.w3.org/2000/svg"
   viewBox="0 0 1333.3333 1333.3333"
   height="1333.3333"
   width="1333.3333"
   xml:space="preserve"
   id="svg2"
   version="1.1"><metadata
     id="metadata8"><rdf:RDF><cc:Work
         rdf:about=""><dc:format>image/svg+xml</dc:format><dc:type
           rdf:resource="http://purl.org/dc/dcmitype/StillImage" /></cc:Work></rdf:RDF></metadata><defs
     id="defs6" /><g
     transform="matrix(1.3333333,0,0,-1.3333333,0,1333.3333)"
     id="g10"><g
       transform="scale(0.1)"
       id="g12"><path
         id="path14"
         style="fill:none;fill-opacity:1;fill-rule:nonzero;stroke:none"
         d="M 10000,0 H 0 V 10000 H 10000 V 0" /><path
         id="path16"
         style="fill:#ff825c;fill-opacity:1;fill-rule:nonzero;stroke:none"
         d="m 3590.75,2314.47 c -33.12,0 -66.35,11.68 -93.03,35.42 -412.61,367.26 -682.85,841.67 -781.47,1371.93 -98.61,530.15 -17.09,1069.75 235.75,1560.49 35.42,68.74 119.82,95.73 188.57,60.33 68.73,-35.41 95.75,-119.84 60.34,-188.57 -457.46,-887.87 -263.36,-1930.73 482.97,-2595.02 57.76,-51.41 62.91,-139.91 11.5,-197.66 -27.67,-31.07 -66.07,-46.92 -104.63,-46.92" /><path
         id="path18"
         style="fill:#ff825c;fill-opacity:1;fill-rule:nonzero;stroke:none"
         d="m 3933.35,2793.55 c -35.89,0 -71.76,13.7 -99.1,41.11 -559.02,560.26 -714.01,1389.98 -394.89,2113.82 31.2,70.74 113.82,102.81 184.58,71.63 70.76,-31.19 102.83,-113.84 71.63,-184.58 -134.1,-304.17 -173.41,-634.03 -113.68,-953.92 59.75,-320 215.55,-613.64 450.56,-849.17 54.62,-54.74 54.52,-143.38 -0.22,-197.99 -27.32,-27.27 -63.11,-40.9 -98.88,-40.9" /><path
         id="path20"
         style="fill:#ff825c;fill-opacity:1;fill-rule:nonzero;stroke:none"
         d="m 4283.32,3282.89 c -41.22,0 -82.05,18.13 -109.69,52.91 -283.34,356.5 -372.21,829.01 -237.74,1263.96 22.84,73.87 101.29,115.22 175.1,92.4 73.88,-22.83 115.25,-101.23 92.4,-175.09 -107.12,-346.55 -36.31,-723.01 189.44,-1007.05 48.1,-60.54 38.04,-148.61 -22.49,-196.72 -25.75,-20.46 -56.5,-30.41 -87.02,-30.41" /><path
         id="path22"
         style="fill:#ff825c;fill-opacity:1;fill-rule:nonzero;stroke:none"
         d="m 7154.42,2755.48 h -730 c -495.23,0 -781.08,230.14 -933.67,423.19 -164.48,208.1 -211.26,418.42 -213.18,427.27 -15.91,73.71 29.42,146.78 102.52,165.27 1.39,0.37 194.07,52.03 360.71,205.17 189.89,174.52 271.22,409.31 242.5,699.1 h -798.88 c -77.32,0 -140,62.68 -140,140 v 700 h -373.28 c -145.93,0 -279.99,73.4 -358.6,196.35 -78.48,122.74 -88.95,274.93 -28.05,407.24 L 5056.79,7833 c 31.75,70.49 114.64,101.93 185.15,70.12 70.49,-31.76 101.88,-114.66 70.12,-185.16 L 4539.5,6003.46 c -0.19,-0.42 -0.37,-0.83 -0.56,-1.24 -21.27,-45.99 -17.8,-96.85 9.49,-139.55 27.31,-42.69 72.03,-67.19 122.71,-67.19 h 513.28 c 77.33,0 140,-62.67 140,-140 v -700 h 780 c 67.37,0 125.19,-47.98 137.6,-114.19 104.98,-559.88 -116.93,-896.33 -321.59,-1080 -115.69,-103.83 -238.41,-170.34 -329.72,-210.32 78.95,-181.81 296.98,-515.49 833.71,-515.49 h 730 c 77.33,0 140,-62.67 140,-140 0,-77.32 -62.67,-140 -140,-140" /><path
         id="path24"
         style="fill:#ff825c;fill-opacity:1;fill-rule:nonzero;stroke:none"
         d="m 6664.42,7105.48 c 0,-176.73 -143.27,-320 -320,-320 -176.73,0 -320,143.27 -320,320 0,176.73 143.27,320 320,320 176.73,0 320,-143.27 320,-320" /></g></g></svg>