<?xml version="1.0" encoding="UTF-8" standalone="no"?>
<svg
   xmlns:dc="http://purl.org/dc/elements/1.1/"
   xmlns:cc="http://creativecommons.org/ns#"
   xmlns:rdf="http://www.w3.org/1999/02/22-rdf-syntax-ns#"
   xmlns:svg="http://www.w3.org/2000/svg"
   xmlns="http://www.w3.org/2000/svg"
   viewBox="0 0 879.61334 1177.6533"
   height="1177.6533"
   width="879.61334"
   xml:space="preserve"
   id="svg2"
   version="1.1"><metadata
     id="metadata8"><rdf:RDF><cc:Work
         rdf:about=""><dc:format>image/svg+xml</dc:format><dc:type
           rdf:resource="http://purl.org/dc/dcmitype/StillImage" /></cc:Work></rdf:RDF></metadata><defs
     id="defs6" /><g
     transform="matrix(1.3333333,0,0,-1.3333333,0,1177.6533)"
     id="g10"><g
       transform="scale(0.1)"
       id="g12"><path
         id="path14"
         style="fill:#231f20;fill-opacity:1;fill-rule:nonzero;stroke:none"
         d="m 3741,7866.11 c 0,-375.07 -286.68,-679.13 -640.32,-679.13 -353.64,0 -640.32,304.06 -640.32,679.13 0,375.08 286.68,679.14 640.32,679.14 353.64,0 640.32,-304.06 640.32,-679.14" /><path
         id="path16"
         style="fill:#231f20;fill-opacity:1;fill-rule:nonzero;stroke:none"
         d="m 944.75,6538.66 c -29.574,15.85 -49.297,40.24 -59.238,73.19 -9.926,32.92 -6.981,64.15 8.89,93.74 15.864,29.54 39.977,49.22 72.34,58.98 32.363,9.76 63.318,6.7 92.888,-9.14 29.56,-15.89 49.32,-40.28 59.24,-73.2 9.94,-32.95 6.97,-64.19 -8.89,-93.74 -15.87,-29.58 -39.98,-49.22 -72.34,-58.98 -32.36,-9.76 -63.327,-6.73 -92.89,9.15 z M 506.664,7664.61 c 49.727,85.62 132.246,145.82 247.512,180.59 115.242,34.76 217.41,30.87 306.424,-11.65 89.02,-42.55 151.08,-122.01 186.19,-238.4 35.11,-116.4 27.2,-211.39 -23.7,-284.96 -50.91,-73.61 -142.04,-130.83 -273.426,-171.67 l 62.676,-207.81 -183.965,-55.49 -102.754,340.69 81.766,24.65 c 107.082,31.04 182.082,68.86 225.033,113.4 42.93,44.54 51.56,109.41 25.88,194.57 -18.16,60.18 -49.7,102.09 -94.601,125.71 -44.926,23.61 -98.023,26.19 -159.347,7.69 -61.325,-18.5 -104.641,-49.53 -129.887,-93.07 -25.277,-43.57 -29,-94.88 -11.195,-153.91 l -182.258,-54.97 c -32.653,104.13 -24.102,199.01 25.652,284.63" /><path
         id="path18"
         style="fill:#231f20;fill-opacity:1;fill-rule:nonzero;stroke:none"
         d="m 5812.66,8814.98 c 141.9,37.63 291.52,14.23 448.83,-70.18 157.25,-84.38 260.29,-195.56 309.04,-333.46 48.71,-137.95 30.47,-286.3 -54.74,-445.13 -85.24,-158.86 -193.11,-250.16 -323.6,-273.93 -130.56,-23.78 -286.07,11.77 -466.66,106.7 l -152.15,-283.59 -251.05,134.7 249.45,464.89 111.58,-59.87 c 144.81,-79.7 263.09,-118.71 354.81,-117.03 91.7,1.69 168.75,60.64 231.11,176.86 44.06,82.12 54.92,159.13 32.62,230.97 -22.34,71.86 -75.31,130.23 -158.98,175.12 -83.7,44.9 -161.65,57.77 -233.77,38.61 -72.17,-19.18 -129.87,-69.07 -173.09,-149.62 l -248.71,133.45 c 74.92,143.39 183.38,233.91 325.31,271.51 z M 5091.49,7175.21 c -14.4,47.63 -9.49,93.89 14.63,138.85 24.1,44.93 59.94,74.58 107.6,88.95 47.59,14.36 93.51,9.7 137.67,-14 44.16,-23.69 73.4,-59.35 87.79,-106.97 14.34,-47.65 9.48,-93.92 -14.62,-138.85 -24.13,-44.96 -60,-74.6 -107.6,-88.95 -47.66,-14.38 -93.52,-9.7 -137.68,14 -44.16,23.69 -73.45,59.34 -87.79,106.97" /><path
         id="path20"
         style="fill:#231f20;fill-opacity:1;fill-rule:nonzero;stroke:none"
         d="m 4664.75,5945.64 c -80.41,-11.66 -278.12,-15.14 -389.45,-16.18 v 17.83 620.89 c 0,208.11 -221.06,388.17 -454.04,474.89 v 3.69 c -91.48,32.95 -274.01,51.42 -355.63,51.42 0,0 -72.29,4.47 -95.82,0 -88.51,-16.83 -174.46,-51.2 -269.13,-51.2 -94.67,0 -180.62,34.37 -269.13,51.2 -23.53,4.47 -95.81,0 -95.81,0 -38.47,-2.69 -140.91,-36.87 -185.71,-54.89 -233.19,-86.63 -454.61,-266.82 -454.61,-475.11 v -618.14 c -111.67,3.47 -307.24,11.2 -386.86,24.5 -209.66,35.04 -597.25,184.44 -508.42,-28.32 114.42,-274.08 857.41,-374.91 895.28,-379.88 153.77,-26.7 322.78,-35.49 389.98,-38.07 v 804.91 h 64.63 9.42 V 2238.39 h 588.5 v 2492.46 h 84.81 V 2238.39 h 588.5 v 3176.34 918.45 h 64.06 v -805.72 c 76.71,0.59 282.18,3.65 389.98,19.1 80.95,9.34 780.87,97.33 897.16,359.8 93.38,210.8 -297.34,69.78 -507.71,39.28" /><path
         id="path22"
         style="fill:#ffffff;fill-opacity:1;fill-rule:nonzero;stroke:none"
         d="M 541.262,597 V 979.039 H 666.539 V 597 c 0,-42.648 10.801,-74.941 32.426,-96.852 21.617,-21.918 52.558,-32.867 92.848,-32.867 40.273,0 71.371,10.949 93.289,32.867 21.91,21.911 32.878,54.204 32.878,96.852 v 382.039 h 124.38 V 597 c 0,-78.191 -24.58,-138.469 -73.743,-180.809 C 919.449,373.84 859.629,352.66 789.145,352.66 c -70.493,0 -129.422,21.02 -176.805,63.09 -47.395,42.051 -71.078,102.461 -71.078,181.25" /><path
         id="path24"
         style="fill:#ffffff;fill-opacity:1;fill-rule:nonzero;stroke:none"
         d="m 1298.25,851.102 v -73.743 c 31.38,53.891 82.32,80.852 152.81,80.852 56.27,0 102.18,-18.52 137.72,-55.531 35.54,-37.028 53.31,-88.41 53.31,-154.149 V 358.879 H 1517.7 v 271.883 c 0,38.488 -9.78,67.968 -29.32,88.41 -19.55,20.43 -46.2,30.637 -79.96,30.637 -33.77,0 -60.57,-10.207 -80.41,-30.637 -19.85,-20.442 -29.76,-49.922 -29.76,-88.41 V 358.879 h -125.28 v 492.223 h 125.28" /><path
         id="path26"
         style="fill:#ffffff;fill-opacity:1;fill-rule:nonzero;stroke:none"
         d="m 1803.78,421.082 c -45.02,46.199 -67.52,107.5 -67.52,183.918 0,76.398 22.5,137.711 67.52,183.91 45.01,46.199 103.36,69.301 175.03,69.301 59.82,0 109.87,-14.52 150.15,-43.539 40.28,-29.02 67.23,-70.184 80.86,-123.492 h -135.05 c -16,40.871 -47.98,61.3 -95.96,61.3 -36.13,0 -64.41,-13.191 -84.85,-39.531 -20.43,-26.371 -30.65,-62.359 -30.65,-107.949 0,-45.629 10.22,-81.602 30.65,-107.961 20.44,-26.359 48.72,-39.527 84.85,-39.527 47.39,0 79.37,20.718 95.96,62.179 h 135.05 c -14.22,-51.519 -41.62,-92.39 -82.19,-122.601 -40.57,-30.211 -90.18,-45.32 -148.82,-45.32 -71.67,0 -130.02,23.109 -175.03,69.312" /><path
         id="path28"
         style="fill:#ffffff;fill-opacity:1;fill-rule:nonzero;stroke:none"
         d="m 2594.08,723.16 c -22.21,19.551 -49.02,29.32 -80.41,29.32 -31.4,0 -57.61,-9.769 -78.63,-29.32 -21.03,-19.551 -33.62,-45.609 -37.76,-78.18 h 232.78 c -1.77,32.571 -13.77,58.629 -35.98,78.18 z m -82.19,-371.39 c -71.67,0 -130.02,23.25 -175.02,69.75 -45.03,46.492 -67.53,107.949 -67.53,184.371 0,76.398 22.66,137.55 67.97,183.461 45.31,45.898 103.95,68.859 175.92,68.859 71.97,0 131.05,-22.359 177.25,-67.082 46.2,-44.731 69.3,-104.391 69.3,-179.027 0,-17.18 -1.19,-33.18 -3.55,-47.981 h -358.95 c 2.96,-31.98 14.8,-57.75 35.54,-77.301 20.72,-19.539 47.09,-29.308 79.07,-29.308 43.24,0 75.22,17.758 95.96,53.308 h 135.05 c -14.22,-46.8 -41.76,-85.011 -82.63,-114.621 -40.87,-29.617 -90.33,-44.429 -148.38,-44.429" /><path
         id="path30"
         style="fill:#ffffff;fill-opacity:1;fill-rule:nonzero;stroke:none"
         d="m 2983.67,851.102 v -87.071 c 33.17,62.77 81.14,94.18 143.93,94.18 V 730.27 h -31.09 c -37.32,0 -65.46,-9.329 -84.41,-27.989 -18.96,-18.66 -28.43,-50.801 -28.43,-96.39 V 358.879 h -125.28 v 492.223 h 125.28" /><path
         id="path32"
         style="fill:#ffffff;fill-opacity:1;fill-rule:nonzero;stroke:none"
         d="m 3407.49,463.73 h 59.52 V 358.879 h -79.08 c -50.35,0 -89.15,11.562 -116.38,34.652 -27.26,23.11 -40.88,61.309 -40.88,114.621 v 240.77 h -52.42 v 102.18 h 52.42 v 121.726 h 125.28 V 851.102 h 110.17 v -102.18 h -110.17 v -240.77 c 0,-15.992 3.85,-27.402 11.55,-34.211 7.69,-6.812 21.02,-10.211 39.99,-10.211" /><path
         id="path34"
         style="fill:#ffffff;fill-opacity:1;fill-rule:nonzero;stroke:none"
         d="m 3878.37,498.82 c 26.06,25.77 39.1,61.149 39.1,106.18 0,45 -13.04,80.398 -39.1,106.172 -26.07,25.758 -56.57,38.637 -91.51,38.637 -34.96,0 -65.3,-12.739 -91.07,-38.2 -25.77,-25.468 -38.65,-60.718 -38.65,-105.718 0,-45.032 13.02,-80.571 39.1,-106.629 26.05,-26.071 56.41,-39.09 91.06,-39.09 34.66,0 65,12.879 91.07,38.648 z m -282.09,-75.519 c -44.14,47.668 -66.19,108.531 -66.19,182.59 0,74.031 21.91,134.597 65.74,181.691 43.83,47.09 99.52,70.629 167.04,70.629 67.53,0 119.06,-27.852 154.6,-83.52 v 76.411 h 124.38 V 358.879 h -124.38 v 82.633 c -37.32,-59.832 -89.15,-89.742 -155.49,-89.742 -66.34,0 -121.58,23.839 -165.7,71.531" /><path
         id="path36"
         style="fill:#ffffff;fill-opacity:1;fill-rule:nonzero;stroke:none"
         d="m 4175.12,358.879 v 492.223 h 125.29 V 358.879 Z m 138.61,617.492 c 0,-21.312 -7.42,-39.391 -22.21,-54.191 -14.82,-14.809 -32.74,-22.211 -53.76,-22.211 -21.03,0 -38.96,7.402 -53.75,22.211 -14.82,14.8 -22.21,32.879 -22.21,54.191 0,21.328 7.39,39.389 22.21,54.199 14.79,14.81 32.72,22.22 53.75,22.22 21.02,0 38.94,-7.41 53.76,-22.22 14.79,-14.81 22.21,-32.871 22.21,-54.199" /><path
         id="path38"
         style="fill:#ffffff;fill-opacity:1;fill-rule:nonzero;stroke:none"
         d="m 4558.94,851.102 v -73.743 c 31.39,53.891 82.31,80.852 152.81,80.852 56.27,0 102.18,-18.52 137.72,-55.531 35.53,-37.028 53.31,-88.41 53.31,-154.149 V 358.879 h -124.39 v 271.883 c 0,38.488 -9.77,67.968 -29.32,88.41 -19.54,20.43 -46.2,30.637 -79.96,30.637 -33.76,0 -60.57,-10.207 -80.41,-30.637 -19.85,-20.442 -29.76,-49.922 -29.76,-88.41 V 358.879 h -125.28 v 492.223 h 125.28" /><path
         id="path40"
         style="fill:#ffffff;fill-opacity:1;fill-rule:nonzero;stroke:none"
         d="m 5222.62,463.73 h 59.52 V 358.879 h -79.07 c -50.35,0 -89.15,11.562 -116.39,34.652 -27.25,23.11 -40.87,61.309 -40.87,114.621 v 240.77 h -52.42 v 102.18 h 52.42 v 121.726 h 125.28 V 851.102 h 110.16 v -102.18 h -110.16 v -240.77 c 0,-15.992 3.85,-27.402 11.54,-34.211 7.7,-6.812 21.03,-10.211 39.99,-10.211" /><path
         id="path42"
         style="fill:#ffffff;fill-opacity:1;fill-rule:nonzero;stroke:none"
         d="m 5512.26,367.77 -192.79,483.332 h 140.38 l 125.27,-350.063 132.38,350.063 h 130.61 l -307.41,-725 h -130.61 l 102.17,241.668" /><path
         id="path44"
         style="fill:#14145b;fill-opacity:1;fill-rule:nonzero;stroke:none"
         d="M 6330.73,530.52 C 6330.73,237.531 6114.17,0 5846.98,0 H 483.746 C 216.582,0 0,237.531 0,530.52 V 795.922 C 0,1088.93 216.582,1326.44 483.746,1326.44 H 5846.98 c 267.19,0 483.75,-237.51 483.75,-530.518 V 530.52" /><path
         id="path46"
         style="fill:#ffffff;fill-opacity:1;fill-rule:nonzero;stroke:none"
         d="M 541.262,613.082 V 995.121 H 666.539 V 613.082 c 0,-42.641 10.801,-74.941 32.426,-96.844 21.617,-21.929 52.558,-32.867 92.848,-32.867 40.273,0 71.371,10.938 93.289,32.867 21.91,21.903 32.878,54.203 32.878,96.844 v 382.039 h 124.38 V 613.082 c 0,-78.191 -24.58,-138.461 -73.743,-180.812 -49.168,-42.348 -108.988,-63.52 -179.472,-63.52 -70.493,0 -129.422,21.012 -176.805,63.082 -47.395,42.047 -71.078,102.457 -71.078,181.25" /><path
         id="path48"
         style="fill:#ffffff;fill-opacity:1;fill-rule:nonzero;stroke:none"
         d="m 1298.25,867.18 v -73.739 c 31.38,53.891 82.32,80.848 152.81,80.848 56.27,0 102.18,-18.508 137.72,-55.519 35.54,-37.032 53.31,-88.411 53.31,-154.149 V 374.969 H 1517.7 V 646.84 c 0,38.5 -9.78,67.969 -29.32,88.41 -19.55,20.43 -46.2,30.648 -79.96,30.648 -33.77,0 -60.57,-10.218 -80.41,-30.648 -19.85,-20.441 -29.76,-49.91 -29.76,-88.41 V 374.969 H 1172.97 V 867.18 h 125.28" /><path
         id="path50"
         style="fill:#ffffff;fill-opacity:1;fill-rule:nonzero;stroke:none"
         d="m 1803.78,437.172 c -45.02,46.199 -67.52,107.5 -67.52,183.91 0,76.406 22.5,137.719 67.52,183.918 45.01,46.199 103.36,69.289 175.03,69.289 59.82,0 109.87,-14.519 150.15,-43.527 40.28,-29.024 67.23,-70.192 80.86,-123.5 h -135.05 c -16,40.867 -47.98,61.297 -95.96,61.297 -36.13,0 -64.41,-13.18 -84.85,-39.528 -20.43,-26.371 -30.65,-62.351 -30.65,-107.949 0,-45.621 10.22,-81.602 30.65,-107.961 20.44,-26.359 48.72,-39.531 84.85,-39.531 47.39,0 79.37,20.719 95.96,62.191 h 135.05 c -14.22,-51.531 -41.62,-92.39 -82.19,-122.609 -40.57,-30.203 -90.18,-45.313 -148.82,-45.313 -71.67,0 -130.02,23.102 -175.03,69.313" /><path
         id="path52"
         style="fill:#ffffff;fill-opacity:1;fill-rule:nonzero;stroke:none"
         d="m 2594.08,739.25 c -22.21,19.551 -49.02,29.309 -80.41,29.309 -31.4,0 -57.61,-9.758 -78.63,-29.309 -21.03,-19.559 -33.62,-45.621 -37.76,-78.191 h 232.78 c -1.77,32.57 -13.77,58.632 -35.98,78.191 z m -82.19,-371.391 c -71.67,0 -130.02,23.243 -175.02,69.743 -45.03,46.5 -67.53,107.949 -67.53,184.367 0,76.41 22.66,137.562 67.97,183.472 45.31,45.899 103.95,68.848 175.92,68.848 71.97,0 131.05,-22.359 177.25,-67.078 46.2,-44.723 69.3,-104.391 69.3,-179.031 0,-17.18 -1.19,-33.168 -3.55,-47.981 h -358.95 c 2.96,-31.98 14.8,-57.738 35.54,-77.289 20.72,-19.539 47.09,-29.32 79.07,-29.32 43.24,0 75.22,17.762 95.96,53.312 h 135.05 c -14.22,-46.8 -41.76,-85.011 -82.63,-114.621 -40.87,-29.621 -90.33,-44.422 -148.38,-44.422" /><path
         id="path54"
         style="fill:#ffffff;fill-opacity:1;fill-rule:nonzero;stroke:none"
         d="m 2983.67,867.18 v -87.071 c 33.17,62.782 81.14,94.18 143.93,94.18 V 746.352 h -31.09 c -37.32,0 -65.46,-9.321 -84.41,-27.981 -18.96,-18.672 -28.43,-50.801 -28.43,-96.402 v -247 H 2858.39 V 867.18 h 125.28" /><path
         id="path56"
         style="fill:#ffffff;fill-opacity:1;fill-rule:nonzero;stroke:none"
         d="m 3407.49,479.809 h 59.52 v -104.84 h -79.08 c -50.35,0 -89.15,11.551 -116.38,34.652 -27.26,23.098 -40.88,61.301 -40.88,114.617 v 240.774 h -52.42 V 867.18 h 52.42 v 121.73 h 125.28 V 867.18 h 110.17 V 765.012 H 3355.95 V 524.238 c 0,-15.996 3.85,-27.406 11.55,-34.207 7.69,-6.82 21.02,-10.222 39.99,-10.222" /><path
         id="path58"
         style="fill:#ffffff;fill-opacity:1;fill-rule:nonzero;stroke:none"
         d="m 3878.37,514.902 c 26.06,25.77 39.1,61.149 39.1,106.18 0,45 -13.04,80.398 -39.1,106.168 -26.07,25.762 -56.57,38.648 -91.51,38.648 -34.96,0 -65.3,-12.746 -91.07,-38.207 -25.77,-25.472 -38.65,-60.722 -38.65,-105.722 0,-45.028 13.02,-80.571 39.1,-106.617 26.05,-26.082 56.41,-39.09 91.06,-39.09 34.66,0 65,12.879 91.07,38.64 z m -282.09,-75.523 c -44.14,47.68 -66.19,108.543 -66.19,182.59 0,74.031 21.91,134.601 65.74,181.691 43.83,47.09 99.52,70.629 167.04,70.629 67.53,0 119.06,-27.848 154.6,-83.508 v 76.399 h 124.38 V 374.969 h -124.38 v 82.621 c -37.32,-59.828 -89.15,-89.731 -155.49,-89.731 -66.34,0 -121.58,23.84 -165.7,71.52" /><path
         id="path60"
         style="fill:#ffffff;fill-opacity:1;fill-rule:nonzero;stroke:none"
         d="M 4175.12,374.969 V 867.18 h 125.29 V 374.969 Z m 138.61,617.492 c 0,-21.32 -7.42,-39.402 -22.21,-54.191 -14.82,-14.821 -32.74,-22.219 -53.76,-22.219 -21.03,0 -38.96,7.398 -53.75,22.219 -14.82,14.789 -22.21,32.871 -22.21,54.191 0,21.329 7.39,39.379 22.21,54.199 14.79,14.8 32.72,22.21 53.75,22.21 21.02,0 38.94,-7.41 53.76,-22.21 14.79,-14.82 22.21,-32.87 22.21,-54.199" /><path
         id="path62"
         style="fill:#ffffff;fill-opacity:1;fill-rule:nonzero;stroke:none"
         d="m 4558.94,867.18 v -73.739 c 31.39,53.891 82.31,80.848 152.81,80.848 56.27,0 102.18,-18.508 137.72,-55.519 35.53,-37.032 53.31,-88.411 53.31,-154.149 V 374.969 H 4778.39 V 646.84 c 0,38.5 -9.77,67.969 -29.32,88.41 -19.54,20.43 -46.2,30.648 -79.96,30.648 -33.76,0 -60.57,-10.218 -80.41,-30.648 -19.85,-20.441 -29.76,-49.91 -29.76,-88.41 V 374.969 H 4433.66 V 867.18 h 125.28" /><path
         id="path64"
         style="fill:#ffffff;fill-opacity:1;fill-rule:nonzero;stroke:none"
         d="m 5222.62,479.809 h 59.52 v -104.84 h -79.07 c -50.35,0 -89.15,11.551 -116.39,34.652 -27.25,23.098 -40.87,61.301 -40.87,114.617 v 240.774 h -52.42 V 867.18 h 52.42 v 121.73 h 125.28 V 867.18 h 110.16 V 765.012 H 5171.09 V 524.238 c 0,-15.996 3.85,-27.406 11.54,-34.207 7.7,-6.82 21.03,-10.222 39.99,-10.222" /><path
         id="path66"
         style="fill:#ffffff;fill-opacity:1;fill-rule:nonzero;stroke:none"
         d="M 5512.26,383.852 5319.47,867.18 h 140.38 L 5585.12,517.129 5717.5,867.18 h 130.61 l -307.41,-725 h -130.61 l 102.17,241.672" /></g></g></svg>