<?xml version="1.0" ?>
<svg id="flat" viewBox="0 0 64 64" xmlns="http://www.w3.org/2000/svg">
<defs><style>.cls-1{fill:#f0f0f0;}.cls-2{fill:#afafaf;}</style></defs>
<title/>
<path class="cls-1" d="M52,46a1,1,0,0,1-1-1V22H13V45a1,1,0,0,1-2,0V21a1,1,0,0,1,1-1H52a1,1,0,0,1,1,1V45A1,1,0,0,1,52,46Z"/>
<path class="cls-1" d="M52,22a1,1,0,0,1-.707-1.707l6-6A1,1,0,0,1,58.707,15.707l-6,6A.9968.9968,0,0,1,52,22Z"/>
<path class="cls-1" d="M12,22a.9968.9968,0,0,1-.707-.293l-6-6A1,1,0,0,1,6.707,14.293l6,6A1,1,0,0,1,12,22Z"/>
<path class="cls-1" d="M52,30H12a.9963.9963,0,0,1-.3164-.0513l-6-2a1,1,0,0,1,.6328-1.8975L12.1621,28H51.8379l5.8457-1.9487a1,1,0,0,1,.6328,1.8975l-6,2A.9963.9963,0,0,1,52,30Z"/>
<path class="cls-1" d="M58,40a.9961.9961,0,0,1-.3164-.0518L51.8379,38H12.1621L6.3164,39.9487a1,1,0,0,1-.6328-1.8975l6-2A.9963.9963,0,0,1,12,36H52a.9963.9963,0,0,1,.3164.0513l6,2A1,1,0,0,1,58,40Z"/>
<path class="cls-1" d="M58,52a.9968.9968,0,0,1-.707-.293L51.5859,46H12.4141L6.707,51.707A1,1,0,0,1,5.293,50.293l6-6A1,1,0,0,1,12,44H52a1,1,0,0,1,.707.293l6,6A1,1,0,0,1,58,52Z"/>
<path class="cls-1" d="M44,46a1,1,0,0,1-1-1V21a1.0017,1.0017,0,0,1,.1426-.5146l3.6-6a1,1,0,1,1,1.7148,1.0293L45,21.2769V45A1,1,0,0,1,44,46Z"/>
<path class="cls-1" d="M28,46a1,1,0,0,1-1-1V21.0991l-1.1807-5.9028a1,1,0,1,1,1.9609-.3926l1.2,6A.9839.9839,0,0,1,29,21V45A1,1,0,0,1,28,46Z"/>
<path class="cls-1" d="M20,46a1,1,0,0,1-1-1V21.2769l-3.4575-5.7622a1,1,0,1,1,1.7148-1.0293l3.6,6A1.0017,1.0017,0,0,1,21,21V45A1,1,0,0,1,20,46Z"/>
<path class="cls-1" d="M36,46a1,1,0,0,1-1-1V21a.9839.9839,0,0,1,.02-.1963l1.2-6a1,1,0,1,1,1.9609.3926L37,21.0991V45A1,1,0,0,1,36,46Z"/>
<polygon class="cls-2" points="61 54 57 54 57 16 7 16 7 54 3 54 3 12 61 12 61 54"/>
</svg>