<?xml version="1.0" ?>
<!DOCTYPE svg  PUBLIC '-//W3C//DTD SVG 1.1//EN'  'http://www.w3.org/Graphics/SVG/1.1/DTD/svg11.dtd'>
<svg enable-background="new 0 0 539.5 539.5" height="539.5px" id="GUIDE" version="1.1" viewBox="0 0 539.5 539.5" width="539.5px" xml:space="preserve" xmlns="http://www.w3.org/2000/svg" xmlns:cc="http://creativecommons.org/ns#" xmlns:dc="http://purl.org/dc/elements/1.1/" xmlns:inkscape="http://www.inkscape.org/namespaces/inkscape" xmlns:rdf="http://www.w3.org/1999/02/22-rdf-syntax-ns#" xmlns:sodipodi="http://sodipodi.sourceforge.net/DTD/sodipodi-0.dtd" xmlns:svg="http://www.w3.org/2000/svg" xmlns:xlink="http://www.w3.org/1999/xlink">
<g>
<path d="M181.585,209.726l20.09-36.74l36.74-20.091l-36.74-20.093l-20.09-36.738l-20.091,36.738l-36.74,20.093l36.74,20.091   L181.585,209.726z M172.546,143.854l9.039-16.527l9.038,16.527l16.529,9.04l-16.529,9.038l-9.038,16.528l-9.039-16.528   l-16.529-9.038L172.546,143.854z"/>
<path d="M75.984,228.795l15.603-28.534l28.533-15.604l-28.533-15.604l-15.603-28.532l-15.603,28.532l-28.529,15.604l28.529,15.604   L75.984,228.795z M71.435,180.106l4.55-8.321l4.55,8.321l8.323,4.551l-8.323,4.551l-4.55,8.321l-4.55-8.321l-8.322-4.551   L71.435,180.106z"/>
<polygon points="66.831,95.565 79.93,95.564 79.93,108.664 94.93,108.664 94.93,95.564 108.027,95.563 108.026,80.563    94.93,80.564 94.93,67.465 79.93,67.465 79.93,80.564 66.83,80.565  "/>
<polygon points="206.843,278.576 206.843,262.635 222.785,262.635 222.785,247.635 206.843,247.635 206.843,231.693    191.843,231.693 191.843,247.635 175.902,247.635 175.902,262.635 191.843,262.635 191.843,278.576  "/>
<path d="M253.304,107.855c13.204,0,23.946-10.742,23.946-23.945s-10.742-23.945-23.946-23.945s-23.947,10.742-23.947,23.945   S240.1,107.855,253.304,107.855z M253.304,74.965c4.933,0,8.945,4.014,8.945,8.945c0,4.933-4.013,8.945-8.945,8.945   c-4.934,0-8.947-4.013-8.947-8.945C244.357,78.979,248.371,74.965,253.304,74.965z"/>
<path d="M471.082,404.158h-50.311L393.6,354.629c18.215-25.686,27.822-55.852,27.822-87.563   c0-83.632-68.039-151.671-151.672-151.671c-16.927,0-33.551,2.77-49.408,8.231l4.885,14.182   c14.282-4.919,29.263-7.413,44.523-7.413c75.362,0,136.672,61.311,136.672,136.671c0,27.687-8.139,54.055-23.566,76.715h-226.21   c-15.429-22.659-23.567-49.027-23.567-76.715c0-28.128,8.475-55.141,24.509-78.117l-12.3-8.584   c-17.8,25.506-27.209,55.487-27.209,86.701c0,31.714,9.608,61.88,27.823,87.563l-27.173,49.529H68.419l-41.352,75.377h485.366   L471.082,404.158z M160.733,358.78h218.035l24.895,45.378H135.837L160.733,358.78z M77.299,419.158h33.199h318.503h33.199   l24.895,45.377H52.405L77.299,419.158z"/>
<path d="M269.75,145.395v15c5.875,0,11.768,0.483,17.516,1.437l2.455-14.797C283.162,145.946,276.443,145.395,269.75,145.395z"/>
<path d="M391.373,270.597c0.033-1.174,0.049-2.351,0.049-3.531c0-52.21-33.258-98.542-82.76-115.291l-4.809,14.209   c43.406,14.686,72.568,55.308,72.568,101.082c0,1.038-0.014,2.074-0.043,3.107L391.373,270.597z"/>
<rect height="15" width="287.024" x="152.458" y="434.347"/><rect height="15" width="32.667" x="100.018" y="434.347"/><rect height="15" width="139.821" x="175.619" y="373.969"/>
<rect height="15" width="26.414" x="337.467" y="373.969"/>
</g>
</svg>