<?xml version="1.0" ?>
<svg data-name="Layer 1" id="Layer_1" viewBox="0 0 128 128" xmlns="http://www.w3.org/2000/svg"><title/>
<polygon points="105.21 11.66 111.06 9.58 109.15 15.49 112.93 20.41 106.72 20.42 103.21 25.54 101.28 19.64 95.33 17.88 100.34 14.22 100.18 8.01 105.21 11.66" style="fill:none;stroke:#000;stroke-linecap:round;stroke-linejoin:round;stroke-width:2px"/>
<polygon points="115.31 35.26 118.56 32.07 119.12 36.58 123.16 38.67 119.04 40.61 118.3 45.09 115.19 41.77 110.69 42.45 112.88 38.47 110.85 34.4 115.31 35.26" style="fill:none;stroke:#000;stroke-linecap:round;stroke-linejoin:round;stroke-width:2px"/>
<path d="M75.33,105.25a95.07,95.07,0,0,1-13.19.88c-12.61,0-23.56-2.27-29.07-5.62" style="fill:none;stroke:#000;stroke-linecap:round;stroke-linejoin:round;stroke-width:2px"/>
<path d="M91.21,100.51a29.23,29.23,0,0,1-6.73,2.82" style="fill:none;stroke:#000;stroke-linecap:round;stroke-linejoin:round;stroke-width:2px"/>
<path d="M101.52,99.45A2.4,2.4,0,0,0,98,97.8c-.2.13-.44.25-.66.37a52.13,52.13,0,0,0-1-6.53,2.08,2.08,0,0,0-3.09-1.43c-5.9,3.57-17.61,6-31.1,6s-25.2-2.44-31.09-6A2.09,2.09,0,0,0,28,91.64a52.13,52.13,0,0,0-1,6.53c-.22-.12-.45-.24-.66-.37a2.4,2.4,0,0,0-3.57,1.65,57.66,57.66,0,0,0-1.1,7.55c0,7.17,18.12,13,40.48,13s40.48-5.82,40.48-13A57.66,57.66,0,0,0,101.52,99.45Z" style="fill:none;stroke:#000;stroke-linecap:round;stroke-linejoin:round;stroke-width:2px"/>
<path d="M31.05,76.47A35.91,35.91,0,0,0,37.72,85" style="fill:none;stroke:#000;stroke-linecap:round;stroke-linejoin:round;stroke-width:2px"/>
<path d="M34.38,36.74A35.74,35.74,0,0,0,27.7,68.21" style="fill:none;stroke:#000;stroke-linecap:round;stroke-linejoin:round;stroke-width:2px"/>
<path d="M75.5,26a37.16,37.16,0,0,0-4.58-1.5" style="fill:none;stroke:#000;stroke-linecap:round;stroke-linejoin:round;stroke-width:2px"/>
<path d="M95.74,47.2A35.69,35.69,0,0,0,81.24,29" style="fill:none;stroke:#000;stroke-linecap:round;stroke-linejoin:round;stroke-width:2px"/>
<path d="M92.62,90.55a44.47,44.47,0,1,0-61,0" style="fill:none;stroke:#000;stroke-linecap:round;stroke-linejoin:round;stroke-width:2px"/>
<polygon points="11.73 21.46 16.17 17.52 16.59 23.44 21.71 26.45 16.21 28.68 14.94 34.48 11.11 29.94 5.2 30.52 8.34 25.48 5.96 20.03 11.73 21.46" style="fill:none;stroke:#000;stroke-linecap:round;stroke-linejoin:round;stroke-width:2px"/>
<polygon points="74.04 41.61 78.59 37.39 79.18 43.57 84.6 46.6 78.9 49.06 77.7 55.16 73.6 50.5 67.43 51.24 70.59 45.89 67.98 40.26 74.04 41.61" style="fill:none;stroke:#000;stroke-linecap:round;stroke-linejoin:round;stroke-width:2px"/>
<polygon points="10.78 79.92 14.51 77.73 13.98 82.02 17.21 84.89 12.96 85.71 11.23 89.67 9.14 85.89 4.84 85.46 7.79 82.31 6.87 78.09 10.78 79.92" style="fill:none;stroke:#000;stroke-linecap:round;stroke-linejoin:round;stroke-width:2px"/>
</svg>